<svg width="55" height="55" viewBox="0 0 55 55" fill="none" xmlns="http://www.w3.org/2000/svg">
<circle cx="27.5" cy="27.5" r="27.5" fill="#1652F0"/>
<path fill-rule="evenodd" clip-rule="evenodd" d="M14.1 18.2H39.9C40.5 18.2 41 17.7 41 17.1C41 16.5 40.5 16 39.9 16H14.1C13.5 16 13 16.5 13 17.1C13 17.7 13.5 18.2 14.1 18.2ZM39.9 26.6H14.1C13.5 26.6 13 27.1 13 27.7C13 28.3 13.5 28.8 14.1 28.8H39.9C40.5 28.8 41 28.3 41 27.7C41.1 27.1 40.5 26.6 39.9 26.6ZM14.1 36H39.9C40.5 36 41 36.5 41 37.1C41 37.7 40.5 38.2 39.9 38.2H14.1C13.5 38.2 13 37.7 13 37.1C13 36.5 13.5 36 14.1 36Z" fill="white"/>
</svg>
